<svg xmlns="http://www.w3.org/2000/svg" viewBox="0 0 217 46" width="217" height="46" xmlns:c2pa="http://c2pa.org/manifest"><metadata><c2pa:manifest>AAAWgmp1bWIAAAAeanVtZGMycGEAEQAQgAAAqgA4m3EDYzJwYQAAABZcanVtYgAAAEdqdW1kYzJtYQARABCAAACqADibcQN1cm46YzJwYTphMmZiZGE3Mi02NjQ0LTQ2NmUtYTc2MS0wMWE4YzhlNjM2YmQAAAADl2p1bWIAAAApanVtZGMyYXMAEQAQgAAAqgA4m3EDYzJwYS5hc3NlcnRpb25zAAAAALxqdW1iAAAARGp1bWRjYm9yABEAEIAAAKoAOJtxE2MycGEuaW5ncmVkaWVudC52MwAAAAAYYzJzaHBk/XkgzAVQ2F3pLEsBjNYAAABwY2JvcqNpZGM6Zm9ybWF0bWltYWdlL3N2Zyt4bWxqaW5zdGFuY2VJRHgseG1wOmlpZDpiMTlmMzI5Ny0xNTYwLTQ1YjUtOGY3Ny01MmQyZWI3ZmI2MDJscmVsYXRpb25zaGlwaHBhcmVudE9mAAAB4mp1bWIAAABBanVtZGNib3IAEQAQgAAAqgA4m3ETYzJwYS5hY3Rpb25zLnYyAAAAABhjMnNo946mHoI0LhZc8OOn4+DciQAAAZljYm9yomdhY3Rpb25zgqJmYWN0aW9ua2MycGEub3BlbmVkanBhcmFtZXRlcnOha2luZ3JlZGllbnRzgaJjdXJseC1zZWxmI2p1bWJmPWMycGEuYXNzZXJ0aW9ucy9jMnBhLmluZ3JlZGllbnQudjNkaGFzaFggysPdeewvB+qvB+Braik/zUzkudMf74hB25dnZdEqVL6kZmFjdGlvbngdY29tLmFudGhyb3BpYy5jbGF1ZGUucHJvdmlkZWRqcGFyYW1ldGVyc6F4H2NvbS5hbnRocm9waWMub3JpZ2luLWNvbmZpZGVuY2VndW5rbm93bmtkZXNjcmlwdGlvbnhmQ2xhdWRlIHByb3ZpZGVkIHRoaXMgZmlsZSBhdCB0aGUgcmVxdWVzdCBvZiBhIHVzZXIgYW5kIG1heSBoYXZlIGNyZWF0ZWQgb3IgbW9kaWZpZWQgdGhlIGZpbGUgY29udGVudHMubXNvZnR3YXJlQWdlbnShZG5hbWVmQ2xhdWRlcmFsbEFjdGlvbnNJbmNsdWRlZPUAAADIanVtYgAAAEBqdW1kY2JvcgARABCAAACqADibcRNjMnBhLmhhc2guZGF0YQAAAAAYYzJzaESfbHuc7QgUbgy2xY9fOh0AAACAY2JvcqVjYWxnZnNoYTI1NmNwYWRNAAAAAAAAAAAAAAAAAGRoYXNoWCBE6zUKJW6jL9jRXWngg3sYB1dcOEUZc0ORjsv2bN5UdGRuYW1lbmp1bWJmIG1hbmlmZXN0amV4Y2x1c2lvbnOBomVzdGFydBiUZmxlbmd0aBkeBAAAAj5qdW1iAAAAJ2p1bWRjMmNsABEAEIAAAKoAOJtxA2MycGEuY2xhaW0udjIAAAACD2Nib3KlY2FsZ2ZzaGEyNTZpc2lnbmF0dXJleE1zZWxmI2p1bWJmPS9jMnBhL3VybjpjMnBhOmEyZmJkYTcyLTY2NDQtNDY2ZS1hNzYxLTAxYThjOGU2MzZiZC9jMnBhLnNpZ25hdHVyZWppbnN0YW5jZUlEeCx4bXA6aWlkOjZkNGY0MTczLTgzMjItNGU1Yy1hN2Q4LTMzN2FlMTA4NGU2MHJjcmVhdGVkX2Fzc2VydGlvbnODomN1cmx4LXNlbGYjanVtYmY9YzJwYS5hc3NlcnRpb25zL2MycGEuaW5ncmVkaWVudC52M2RoYXNoWCDKw9157C8H6q8H4GtqKT/NTOS50x/viEHbl2dl0SpUvqJjdXJseCpzZWxmI2p1bWJmPWMycGEuYXNzZXJ0aW9ucy9jMnBhLmFjdGlvbnMudjJkaGFzaFggr07agvNftZPybQaN0BR3rJ0f2tOj1Rb3Sj+kfHwAlRyiY3VybHgpc2VsZiNqdW1iZj1jMnBhLmFzc2VydGlvbnMvYzJwYS5oYXNoLmRhdGFkaGFzaFggfJjuvlbc3FMkNm60Ca1CHtnHEqLSKRtyzoeZgX2nIC10Y2xhaW1fZ2VuZXJhdG9yX2luZm+jZG5hbWVvQW50aHJvcGljIEZpbGVzZ3ZlcnNpb25lMS4wLjBrc3BlY1ZlcnNpb25lMi40LjAAABA4anVtYgAAAChqdW1kYzJjcwARABCAAACqADibcQNjMnBhLnNpZ25hdHVyZQAAABAIY2JvctKEWQISogEmGCFZAgowggIGMIIBjaADAgECAhRA5aAK7sI50L64g/oGQgU9Z1UTADAKBggqhkjOPQQDAzBJMRcwFQYDVQQKEw5BbnRocm9waWMsIFBCQzEuMCwGA1UEAxMlQW50aHJvcGljIENvbnRlbnQgQ3JlZGVudGlhbHMgUm9vdCBDQTAeFw0yNjA4MDcxODQzNTZaFw0yODA4MDYxOTQzNTZaMEQxFzAVBgNVBAoTDkFudGhyb3BpYywgUEJDMSkwJwYDVQQDEyBBbnRocm9waWMgQ2xhdWRlIENvbnRlbnQgU2lnbmluZzBZMBMGByqGSM49AgEGCCqGSM49AwEHA0IABJh6CmvLUBgFFNU0vUKlOVtE6djd17L5SuwX0LemFisBM3dkd/3cyjxFA3Qo5S46fX0/ihY0VZ7mfb9KF703t5OjWDBWMA4GA1UdDwEB/wQEAwIHgDAVBgNVHSUEDjAMBgorBgEEAYPoXgIBMAwGA1UdEwEB/wQCMAAwHwYDVR0jBBgwFoAUzlHiBIFOZFsj+OPEz5o+nMHXXMIwCgYIKoZIzj0EAwMDZwAwZAIwMXMdFJ4BetLLVY7ORuE9noqbbAZOZn/aArXyTwFAZfKrPzxF2vPoJNf1+UCdg1XGAjBwX1zd9WGqYkqmL5SFqw1QySjr1zJfpJM9+1rdDwSPLMOPOjKuiXjoU/pUUeG9RwmhY3BhZFkNngAAAAAAAAAAAAAAAAAAAAAAAAAAAAAAAAAAAAAAAAAAAAAAAAAAAAAAAAAAAAAAAAAAAAAAAAAAAAAAAAAAAAAAAAAAAAAAAAAAAAAAAAAAAAAAAAAAAAAAAAAAAAAAAAAAAAAAAAAAAAAAAAAAAAAAAAAAAAAAAAAAAAAAAAAAAAAAAAAAAAAAAAAAAAAAAAAAAAAAAAAAAAAAAAAAAAAAAAAAAAAAAAAAAAAAAAAAAAAAAAAAAAAAAAAAAAAAAAAAAAAAAAAAAAAAAAAAAAAAAAAAAAAAAAAAAAAAAAAAAAAAAAAAAAAAAAAAAAAAAAAAAAAAAAAAAAAAAAAAAAAAAAAAAAAAAAAAAAAAAAAAAAAAAAAAAAAAAAAAAAAAAAAAAAAAAAAAAAAAAAAAAAAAAAAAAAAAAAAAAAAAAAAAAAAAAAAAAAAAAAAAAAAAAAAAAAAAAAAAAAAAAAAAAAAAAAAAAAAAAAAAAAAAAAAAAAAAAAAAAAAAAAAAAAAAAAAAAAAAAAAAAAAAAAAAAAAAAAAAAAAAAAAAAAAAAAAAAAAAAAAAAAAAAAAAAAAAAAAAAAAAAAAAAAAAAAAAAAAAAAAAAAAAAAAAAAAAAAAAAAAAAAAAAAAAAAAAAAAAAAAAAAAAAAAAAAAAAAAAAAAAAAAAAAAAAAAAAAAAAAAAAAAAAAAAAAAAAAAAAAAAAAAAAAAAAAAAAAAAAAAAAAAAAAAAAAAAAAAAAAAAAAAAAAAAAAAAAAAAAAAAAAAAAAAAAAAAAAAAAAAAAAAAAAAAAAAAAAAAAAAAAAAAAAAAAAAAAAAAAAAAAAAAAAAAAAAAAAAAAAAAAAAAAAAAAAAAAAAAAAAAAAAAAAAAAAAAAAAAAAAAAAAAAAAAAAAAAAAAAAAAAAAAAAAAAAAAAAAAAAAAAAAAAAAAAAAAAAAAAAAAAAAAAAAAAAAAAAAAAAAAAAAAAAAAAAAAAAAAAAAAAAAAAAAAAAAAAAAAAAAAAAAAAAAAAAAAAAAAAAAAAAAAAAAAAAAAAAAAAAAAAAAAAAAAAAAAAAAAAAAAAAAAAAAAAAAAAAAAAAAAAAAAAAAAAAAAAAAAAAAAAAAAAAAAAAAAAAAAAAAAAAAAAAAAAAAAAAAAAAAAAAAAAAAAAAAAAAAAAAAAAAAAAAAAAAAAAAAAAAAAAAAAAAAAAAAAAAAAAAAAAAAAAAAAAAAAAAAAAAAAAAAAAAAAAAAAAAAAAAAAAAAAAAAAAAAAAAAAAAAAAAAAAAAAAAAAAAAAAAAAAAAAAAAAAAAAAAAAAAAAAAAAAAAAAAAAAAAAAAAAAAAAAAAAAAAAAAAAAAAAAAAAAAAAAAAAAAAAAAAAAAAAAAAAAAAAAAAAAAAAAAAAAAAAAAAAAAAAAAAAAAAAAAAAAAAAAAAAAAAAAAAAAAAAAAAAAAAAAAAAAAAAAAAAAAAAAAAAAAAAAAAAAAAAAAAAAAAAAAAAAAAAAAAAAAAAAAAAAAAAAAAAAAAAAAAAAAAAAAAAAAAAAAAAAAAAAAAAAAAAAAAAAAAAAAAAAAAAAAAAAAAAAAAAAAAAAAAAAAAAAAAAAAAAAAAAAAAAAAAAAAAAAAAAAAAAAAAAAAAAAAAAAAAAAAAAAAAAAAAAAAAAAAAAAAAAAAAAAAAAAAAAAAAAAAAAAAAAAAAAAAAAAAAAAAAAAAAAAAAAAAAAAAAAAAAAAAAAAAAAAAAAAAAAAAAAAAAAAAAAAAAAAAAAAAAAAAAAAAAAAAAAAAAAAAAAAAAAAAAAAAAAAAAAAAAAAAAAAAAAAAAAAAAAAAAAAAAAAAAAAAAAAAAAAAAAAAAAAAAAAAAAAAAAAAAAAAAAAAAAAAAAAAAAAAAAAAAAAAAAAAAAAAAAAAAAAAAAAAAAAAAAAAAAAAAAAAAAAAAAAAAAAAAAAAAAAAAAAAAAAAAAAAAAAAAAAAAAAAAAAAAAAAAAAAAAAAAAAAAAAAAAAAAAAAAAAAAAAAAAAAAAAAAAAAAAAAAAAAAAAAAAAAAAAAAAAAAAAAAAAAAAAAAAAAAAAAAAAAAAAAAAAAAAAAAAAAAAAAAAAAAAAAAAAAAAAAAAAAAAAAAAAAAAAAAAAAAAAAAAAAAAAAAAAAAAAAAAAAAAAAAAAAAAAAAAAAAAAAAAAAAAAAAAAAAAAAAAAAAAAAAAAAAAAAAAAAAAAAAAAAAAAAAAAAAAAAAAAAAAAAAAAAAAAAAAAAAAAAAAAAAAAAAAAAAAAAAAAAAAAAAAAAAAAAAAAAAAAAAAAAAAAAAAAAAAAAAAAAAAAAAAAAAAAAAAAAAAAAAAAAAAAAAAAAAAAAAAAAAAAAAAAAAAAAAAAAAAAAAAAAAAAAAAAAAAAAAAAAAAAAAAAAAAAAAAAAAAAAAAAAAAAAAAAAAAAAAAAAAAAAAAAAAAAAAAAAAAAAAAAAAAAAAAAAAAAAAAAAAAAAAAAAAAAAAAAAAAAAAAAAAAAAAAAAAAAAAAAAAAAAAAAAAAAAAAAAAAAAAAAAAAAAAAAAAAAAAAAAAAAAAAAAAAAAAAAAAAAAAAAAAAAAAAAAAAAAAAAAAAAAAAAAAAAAAAAAAAAAAAAAAAAAAAAAAAAAAAAAAAAAAAAAAAAAAAAAAAAAAAAAAAAAAAAAAAAAAAAAAAAAAAAAAAAAAAAAAAAAAAAAAAAAAAAAAAAAAAAAAAAAAAAAAAAAAAAAAAAAAAAAAAAAAAAAAAAAAAAAAAAAAAAAAAAAAAAAAAAAAAAAAAAAAAAAAAAAAAAAAAAAAAAAAAAAAAAAAAAAAAAAAAAAAAAAAAAAAAAAAAAAAAAAAAAAAAAAAAAAAAAAAAAAAAAAAAAAAAAAAAAAAAAAAAAAAAAAAAAAAAAAAAAAAAAAAAAAAAAAAAAAAAAAAAAAAAAAAAAAAAAAAAAAAAAAAAAAAAAAAAAAAAAAAAAAAAAAAAAAAAAAAAAAAAAAAAAAAAAAAAAAAAAAAAAAAAAAAAAAAAAAAAAAAAAAAAAAAAAAAAAAAAAAAAAAAAAAAAAAAAAAAAAAAAAAAAAAAAAAAAAAAAAAAAAAAAAAAAAAAAAAAAAAAAAAAAAAAAAAAAAAAAAAAAAAAAAAAAAAAAAAAAAAAAAAAAAAAAAAAAAAAAAAAAAAAAAAAAAAAAAAAAAAAAAAAAAAAAAAAAAAAAAAAAAAAAAAAAAAAAAAAAAAAAAAAAAAAAAAAAAAAAAAAAAAAAAAAAAAAAAAAAAAAAAAAAAAAAAAAAAAAAAAAAAAAAAAAAAAAAAAAAAAAAAAAAAAAAAAAAAAAAAAAAAAAAAAAAAAAAAAAAAAAAAAAAAAAAAAAAAAAAAAAAAAAAAAAAAAAAAAAAAAAAAAAAAAAAAAAAAAAAAAAAAAAAAAAAAAAAAAAAAAAAAAAAAAAAAAAAAAAAAAAAAAAAAAAAAAAAAAAAAAAAAAAAAAAAAAAAAAAAAAAAAAAAAAAAAAAAAAAAAAAAAAAAAAAAAAAAAAAAAAAAAAAAAAAAAAAAAAAAAAAAAAAAAAAAAAAAAAAAAAAAAAAAAAAAAAAAAAAAAAAAAAAAAAAAAAAAAAAAAAAAAAAAAAAAAAAAAAAAAAAAAAAAAAAAAAAAAAAAAAAAAAAAAAAAAAAAAAAAAAAAAAAAAAAAAAAAAAAAAAAAAAAAAAAAAAAAAAAAAAAAAAAAAAAAAAAAAAAAAAAAAAAAAAAAAAAAAAAAAAAAAAAAAAAAAAAAAAAAAAAAAAAAAAAAAAAAAAAAAAAAAAAAAAAAAAAAAAAAAAAAAAAAAAAAAAAAAAAAAAAAAAAAAAAAAAAAAAAAAAAAAAAAAAAAAAAAAAAAAAAAAAAAAAAAAAAAAAAAAAAAAAAAAAAAAAAAAAAAAAAAAAAAAAAAAAAAAAAAAAAAAAAAAAAAAAAAAAAAAAAAAAAAAAAAAAAAAAAAAAAAAAAAAAAAAAAAAAAAAAAAAAAAAAAAAAAAAAAAAAAAAAAAAAAAAAAAAAAAAAAAAAAAAAAAAAAAAAAAAAAAAAAAAAAAAAAAAAAAAAAAAAAAAAAAAAAAAAAAAAAAAAAAAAAAAAAAAAAAAAAAAAAAAAAAAAAAAAAAAAAAAAAAAAAAAAAAAAAAAAAAAAAAAAAAAAAAAAAAAAAAAAAAAAAAAAAAAAAAAAAAAAAAAAAAAAAAAAAAAAAAAAAAAAAAAAAAAAAAAAAAAAAAAAAAAAAAAAAAAAAAAAAAAAAAAAAAAAAAAAAAAAAAAAAAAAAAAAAAAAAAAAAAAAAAAAAAAAAAAAAAAAAAAAAAAAAAAAAAAAAAAAAAAAAAAAAAAAAAAAAAAAAAAAAAAAAAAAAAAAAAAAAAAAAAAAAAAAAAAAAAAAAAAAAAAAAAAAAAAAAAAAAAAAAAAAAAAAAAAAAAAAAAAAAAAAAAAAAAAAAAAAAAAAAAAAAAAAAAAAAAAAAAAAAAAAAAAAAAAAAAAAAAAAAAAAAAAAAAAAAAAAAAAAAAAAAAAAAAAAAAAAAAAAAAAAAAAAAAAAAAAAAAAAAAAAAAAAAAAAAAAAAAAAAAAAAAAAAAAAAAAAAAAAAAAAAAAAAAAAAAAAAAAAAAAAAAAAAAAAAAAAAAAAAAAAAAAAAAAAAAAAAAAAAAAAAAAAAAAPZYQB9GHwHeiafqxw93Z7mMtYGbuRzhdeeA3WzWEr8lr2K2/Wsq/itkiR4rNWwhQWqWzW3azDj8KWBtJKGT8Z3jQL0=</c2pa:manifest></metadata><path d="M21.1 11.1C21.1 11.1 15.1 8.9 10.7 11.8C6.3 14.6 2.7 22.1 7.1 29.9C11.5 37.8 13.7 38.9 15.3 39.6C16.9 40.4 18.2 39.9 19 39.6C19.9 39.3 22.2 38.7 24.4 39.6C25.8 40.1 28.3 40.5 32.1 36.3C35.8 32.1 39.6 24.8 37.1 17.5C34.5 10.2 26.4 9.3 21.1 11.1" fill="#e94f1e" stroke="#000000" stroke-width="1.1" stroke-linecap="round"/><path d="M21.2 12.9L19.6 7L22.3 6.8L22.3 12.9C22.3 12.9 21.8 13 21.2 12.9" fill="#ce4716" stroke="#000000" stroke-width="1.1" stroke-linecap="round"/><path d="M19.5 12.4C19.5 12.4 22 13.4 24.1 12.4" fill="none" stroke="#000000" stroke-width="1.1" stroke-linecap="round"/><path d="M29.2 13C29.2 13 32.7 13.8 33.5 17.7" fill="none" stroke="#ffffff" stroke-width="1.1" stroke-linecap="round"/><path d="M90.5 11.1C90.5 11.1 84.4 8.9 80 11.8C75.6 14.6 72 22.1 76.4 29.9C80.8 37.8 83 38.9 84.6 39.6C86.2 40.4 87.5 39.9 88.4 39.6C89.2 39.3 91.5 38.7 93.7 39.6C95.1 40.1 97.6 40.5 101.4 36.3C105.1 32.1 108.9 24.8 106.4 17.5C103.8 10.2 95.7 9.3 90.5 11.1" fill="#e94f1e" stroke="#000000" stroke-width="1.1" stroke-linecap="round"/><path d="M90.5 12.9L89 7L91.7 6.8L91.7 12.9C91.7 12.9 91.1 13 90.5 12.9" fill="#ce4716" stroke="#000000" stroke-width="1.1" stroke-linecap="round"/><path d="M88.8 12.4C88.8 12.4 91.4 13.4 93.4 12.4" fill="none" stroke="#000000" stroke-width="1.1" stroke-linecap="round"/><path d="M98.5 13C98.5 13 102 13.8 102.8 17.7" fill="none" stroke="#ffffff" stroke-width="1.1" stroke-linecap="round"/><path d="M55.8 11.1C55.8 11.1 49.8 8.9 45.4 11.8C40.9 14.6 37.4 22.1 41.7 29.9C46.1 37.8 48.4 38.9 49.9 39.6C51.5 40.4 52.9 39.9 53.7 39.6C54.5 39.3 56.9 38.7 59 39.6C60.4 40.1 62.9 40.5 66.8 36.3C70.5 32.1 74.3 24.8 71.7 17.5C69.2 10.2 61.1 9.3 55.8 11.1" fill="#e94f1e" stroke="#000000" stroke-width="1.1" stroke-linecap="round"/><path d="M55.9 12.9L54.3 7L57 6.8L57 12.9C57 12.9 56.5 13 55.9 12.9" fill="#ce4716" stroke="#000000" stroke-width="1.1" stroke-linecap="round"/><path d="M54.1 12.4C54.1 12.4 56.7 13.4 58.7 12.4" fill="none" stroke="#000000" stroke-width="1.1" stroke-linecap="round"/><path d="M63.9 13C63.9 13 67.4 13.8 68.2 17.7" fill="none" stroke="#ffffff" stroke-width="1.1" stroke-linecap="round"/><path d="M125.1 11.1C125.1 11.1 119.1 8.9 114.7 11.8C110.2 14.6 106.7 22.1 111.1 29.9C115.4 37.8 117.7 38.9 119.3 39.6C120.8 40.4 122.2 39.9 123 39.6C123.8 39.3 126.2 38.7 128.3 39.6C129.8 40.1 132.3 40.5 136.1 36.3C139.8 32.1 143.6 24.8 141.1 17.5C138.5 10.2 130.4 9.3 125.1 11.1" fill="#e94f1e" stroke="#000000" stroke-width="1.1" stroke-linecap="round"/><path d="M125.2 12.9L123.6 7L126.3 6.8L126.3 12.9C126.3 12.9 125.8 13 125.2 12.9" fill="#ce4716" stroke="#000000" stroke-width="1.1" stroke-linecap="round"/><path d="M123.5 12.4C123.5 12.4 126 13.4 128 12.4" fill="none" stroke="#000000" stroke-width="1.1" stroke-linecap="round"/><path d="M133.2 13C133.2 13 136.7 13.8 137.5 17.7" fill="none" stroke="#ffffff" stroke-width="1.1" stroke-linecap="round"/><path d="M159.8 11.1C159.8 11.1 153.8 8.9 149.3 11.8C144.9 14.6 141.4 22.1 145.7 29.9C150.1 37.8 152.3 38.9 153.9 39.6C155.5 40.4 156.8 39.9 157.7 39.6C158.5 39.3 160.8 38.7 163 39.6C164.4 40.1 166.9 40.5 170.7 36.3C174.5 32.1 178.3 24.8 175.7 17.5C173.2 10.2 165 9.3 159.8 11.1" fill="#e94f1e" stroke="#000000" stroke-width="1.1" stroke-linecap="round"/><path d="M159.8 12.9L158.3 7L161 6.8L161 12.9C161 12.9 160.5 13 159.8 12.9" fill="#ce4716" stroke="#000000" stroke-width="1.1" stroke-linecap="round"/><path d="M158.1 12.4C158.1 12.4 160.7 13.4 162.7 12.4" fill="none" stroke="#000000" stroke-width="1.1" stroke-linecap="round"/><path d="M167.8 13C167.8 13 171.3 13.8 172.1 17.7" fill="none" stroke="#ffffff" stroke-width="1.1" stroke-linecap="round"/><path d="M194.4 11.1C194.4 11.1 188.4 8.9 184 11.8C179.6 14.6 176 22.1 180.4 29.9C184.7 37.8 187 38.9 188.6 39.6C190.1 40.4 191.5 39.9 192.3 39.6C193.2 39.3 195.5 38.7 197.7 39.6C199.1 40.1 201.6 40.5 205.4 36.3C209.1 32.1 212.9 24.8 210.4 17.5C207.8 10.2 199.7 9.3 194.4 11.1" fill="#e94f1e" stroke="#000000" stroke-width="1.1" stroke-linecap="round"/><path d="M194.5 12.9L192.9 7L195.6 6.8L195.6 12.9C195.6 12.9 195.1 13 194.5 12.9" fill="#ce4716" stroke="#000000" stroke-width="1.1" stroke-linecap="round"/><path d="M192.8 12.4C192.8 12.4 195.3 13.4 197.4 12.4" fill="none" stroke="#000000" stroke-width="1.1" stroke-linecap="round"/><path d="M202.5 13C202.5 13 206 13.8 206.8 17.7" fill="none" stroke="#ffffff" stroke-width="1.1" stroke-linecap="round"/></svg>