<svg xmlns="http://www.w3.org/2000/svg" viewBox="0 0 347 462" width="347" height="462" xmlns:c2pa="http://c2pa.org/manifest"><metadata><c2pa:manifest>AAAWgmp1bWIAAAAeanVtZGMycGEAEQAQgAAAqgA4m3EDYzJwYQAAABZcanVtYgAAAEdqdW1kYzJtYQARABCAAACqADibcQN1cm46YzJwYTpjMTkzMzJhYi0xMTlhLTQxYmQtODc1OS1jY2I2MzgzZDI3MmYAAAADl2p1bWIAAAApanVtZGMyYXMAEQAQgAAAqgA4m3EDYzJwYS5hc3NlcnRpb25zAAAAALxqdW1iAAAARGp1bWRjYm9yABEAEIAAAKoAOJtxE2MycGEuaW5ncmVkaWVudC52MwAAAAAYYzJzaDWzXaftB4S1O6kWM7q80UgAAABwY2JvcqNpZGM6Zm9ybWF0bWltYWdlL3N2Zyt4bWxqaW5zdGFuY2VJRHgseG1wOmlpZDoyNDU4NzdmMC0wOWZkLTQzNzYtYTA1Zi1kZTQwOTY1ZmFmODlscmVsYXRpb25zaGlwaHBhcmVudE9mAAAB4mp1bWIAAABBanVtZGNib3IAEQAQgAAAqgA4m3ETYzJwYS5hY3Rpb25zLnYyAAAAABhjMnNonS5DSlEAS9Wtrpw9q9FBcgAAAZljYm9yomdhY3Rpb25zgqJmYWN0aW9ua2MycGEub3BlbmVkanBhcmFtZXRlcnOha2luZ3JlZGllbnRzgaJjdXJseC1zZWxmI2p1bWJmPWMycGEuYXNzZXJ0aW9ucy9jMnBhLmluZ3JlZGllbnQudjNkaGFzaFggDfAAlSEaCAVIa/fJLjlDWu3r2pQSu5dr2/dsbZN+PNekZmFjdGlvbngdY29tLmFudGhyb3BpYy5jbGF1ZGUucHJvdmlkZWRqcGFyYW1ldGVyc6F4H2NvbS5hbnRocm9waWMub3JpZ2luLWNvbmZpZGVuY2VndW5rbm93bmtkZXNjcmlwdGlvbnhmQ2xhdWRlIHByb3ZpZGVkIHRoaXMgZmlsZSBhdCB0aGUgcmVxdWVzdCBvZiBhIHVzZXIgYW5kIG1heSBoYXZlIGNyZWF0ZWQgb3IgbW9kaWZpZWQgdGhlIGZpbGUgY29udGVudHMubXNvZnR3YXJlQWdlbnShZG5hbWVmQ2xhdWRlcmFsbEFjdGlvbnNJbmNsdWRlZPUAAADIanVtYgAAAEBqdW1kY2JvcgARABCAAACqADibcRNjMnBhLmhhc2guZGF0YQAAAAAYYzJzaMeaYHx6dm4YPZC//iAq+1wAAACAY2JvcqVjYWxnZnNoYTI1NmNwYWRNAAAAAAAAAAAAAAAAAGRoYXNoWCDODWby79uZCyo8Mxp/TkzKTpMjr9oNuUXjZcm2vzyfc2RuYW1lbmp1bWJmIG1hbmlmZXN0amV4Y2x1c2lvbnOBomVzdGFydBiWZmxlbmd0aBkeBAAAAj5qdW1iAAAAJ2p1bWRjMmNsABEAEIAAAKoAOJtxA2MycGEuY2xhaW0udjIAAAACD2Nib3KlY2FsZ2ZzaGEyNTZpc2lnbmF0dXJleE1zZWxmI2p1bWJmPS9jMnBhL3VybjpjMnBhOmMxOTMzMmFiLTExOWEtNDFiZC04NzU5LWNjYjYzODNkMjcyZi9jMnBhLnNpZ25hdHVyZWppbnN0YW5jZUlEeCx4bXA6aWlkOjFmZmRiMjg0LTE5NDEtNDFkMS04MDdjLTUyY2FmOWE5YjNmN3JjcmVhdGVkX2Fzc2VydGlvbnODomN1cmx4LXNlbGYjanVtYmY9YzJwYS5hc3NlcnRpb25zL2MycGEuaW5ncmVkaWVudC52M2RoYXNoWCAN8ACVIRoIBUhr98kuOUNa7evalBK7l2vb92xtk34816JjdXJseCpzZWxmI2p1bWJmPWMycGEuYXNzZXJ0aW9ucy9jMnBhLmFjdGlvbnMudjJkaGFzaFggmPVCjDh86W4V44tJJWEJnjaQEY8TEu0F2JePFWSMwAiiY3VybHgpc2VsZiNqdW1iZj1jMnBhLmFzc2VydGlvbnMvYzJwYS5oYXNoLmRhdGFkaGFzaFggwpHGxWYoYPv2F4YBJ58gIuLbK1Y2XavypS1Kp6NsLGF0Y2xhaW1fZ2VuZXJhdG9yX2luZm+jZG5hbWVvQW50aHJvcGljIEZpbGVzZ3ZlcnNpb25lMS4wLjBrc3BlY1ZlcnNpb25lMi40LjAAABA4anVtYgAAAChqdW1kYzJjcwARABCAAACqADibcQNjMnBhLnNpZ25hdHVyZQAAABAIY2JvctKEWQISogEmGCFZAgowggIGMIIBjaADAgECAhRA5aAK7sI50L64g/oGQgU9Z1UTADAKBggqhkjOPQQDAzBJMRcwFQYDVQQKEw5BbnRocm9waWMsIFBCQzEuMCwGA1UEAxMlQW50aHJvcGljIENvbnRlbnQgQ3JlZGVudGlhbHMgUm9vdCBDQTAeFw0yNjA4MDcxODQzNTZaFw0yODA4MDYxOTQzNTZaMEQxFzAVBgNVBAoTDkFudGhyb3BpYywgUEJDMSkwJwYDVQQDEyBBbnRocm9waWMgQ2xhdWRlIENvbnRlbnQgU2lnbmluZzBZMBMGByqGSM49AgEGCCqGSM49AwEHA0IABJh6CmvLUBgFFNU0vUKlOVtE6djd17L5SuwX0LemFisBM3dkd/3cyjxFA3Qo5S46fX0/ihY0VZ7mfb9KF703t5OjWDBWMA4GA1UdDwEB/wQEAwIHgDAVBgNVHSUEDjAMBgorBgEEAYPoXgIBMAwGA1UdEwEB/wQCMAAwHwYDVR0jBBgwFoAUzlHiBIFOZFsj+OPEz5o+nMHXXMIwCgYIKoZIzj0EAwMDZwAwZAIwMXMdFJ4BetLLVY7ORuE9noqbbAZOZn/aArXyTwFAZfKrPzxF2vPoJNf1+UCdg1XGAjBwX1zd9WGqYkqmL5SFqw1QySjr1zJfpJM9+1rdDwSPLMOPOjKuiXjoU/pUUeG9RwmhY3BhZFkNngAAAAAAAAAAAAAAAAAAAAAAAAAAAAAAAAAAAAAAAAAAAAAAAAAAAAAAAAAAAAAAAAAAAAAAAAAAAAAAAAAAAAAAAAAAAAAAAAAAAAAAAAAAAAAAAAAAAAAAAAAAAAAAAAAAAAAAAAAAAAAAAAAAAAAAAAAAAAAAAAAAAAAAAAAAAAAAAAAAAAAAAAAAAAAAAAAAAAAAAAAAAAAAAAAAAAAAAAAAAAAAAAAAAAAAAAAAAAAAAAAAAAAAAAAAAAAAAAAAAAAAAAAAAAAAAAAAAAAAAAAAAAAAAAAAAAAAAAAAAAAAAAAAAAAAAAAAAAAAAAAAAAAAAAAAAAAAAAAAAAAAAAAAAAAAAAAAAAAAAAAAAAAAAAAAAAAAAAAAAAAAAAAAAAAAAAAAAAAAAAAAAAAAAAAAAAAAAAAAAAAAAAAAAAAAAAAAAAAAAAAAAAAAAAAAAAAAAAAAAAAAAAAAAAAAAAAAAAAAAAAAAAAAAAAAAAAAAAAAAAAAAAAAAAAAAAAAAAAAAAAAAAAAAAAAAAAAAAAAAAAAAAAAAAAAAAAAAAAAAAAAAAAAAAAAAAAAAAAAAAAAAAAAAAAAAAAAAAAAAAAAAAAAAAAAAAAAAAAAAAAAAAAAAAAAAAAAAAAAAAAAAAAAAAAAAAAAAAAAAAAAAAAAAAAAAAAAAAAAAAAAAAAAAAAAAAAAAAAAAAAAAAAAAAAAAAAAAAAAAAAAAAAAAAAAAAAAAAAAAAAAAAAAAAAAAAAAAAAAAAAAAAAAAAAAAAAAAAAAAAAAAAAAAAAAAAAAAAAAAAAAAAAAAAAAAAAAAAAAAAAAAAAAAAAAAAAAAAAAAAAAAAAAAAAAAAAAAAAAAAAAAAAAAAAAAAAAAAAAAAAAAAAAAAAAAAAAAAAAAAAAAAAAAAAAAAAAAAAAAAAAAAAAAAAAAAAAAAAAAAAAAAAAAAAAAAAAAAAAAAAAAAAAAAAAAAAAAAAAAAAAAAAAAAAAAAAAAAAAAAAAAAAAAAAAAAAAAAAAAAAAAAAAAAAAAAAAAAAAAAAAAAAAAAAAAAAAAAAAAAAAAAAAAAAAAAAAAAAAAAAAAAAAAAAAAAAAAAAAAAAAAAAAAAAAAAAAAAAAAAAAAAAAAAAAAAAAAAAAAAAAAAAAAAAAAAAAAAAAAAAAAAAAAAAAAAAAAAAAAAAAAAAAAAAAAAAAAAAAAAAAAAAAAAAAAAAAAAAAAAAAAAAAAAAAAAAAAAAAAAAAAAAAAAAAAAAAAAAAAAAAAAAAAAAAAAAAAAAAAAAAAAAAAAAAAAAAAAAAAAAAAAAAAAAAAAAAAAAAAAAAAAAAAAAAAAAAAAAAAAAAAAAAAAAAAAAAAAAAAAAAAAAAAAAAAAAAAAAAAAAAAAAAAAAAAAAAAAAAAAAAAAAAAAAAAAAAAAAAAAAAAAAAAAAAAAAAAAAAAAAAAAAAAAAAAAAAAAAAAAAAAAAAAAAAAAAAAAAAAAAAAAAAAAAAAAAAAAAAAAAAAAAAAAAAAAAAAAAAAAAAAAAAAAAAAAAAAAAAAAAAAAAAAAAAAAAAAAAAAAAAAAAAAAAAAAAAAAAAAAAAAAAAAAAAAAAAAAAAAAAAAAAAAAAAAAAAAAAAAAAAAAAAAAAAAAAAAAAAAAAAAAAAAAAAAAAAAAAAAAAAAAAAAAAAAAAAAAAAAAAAAAAAAAAAAAAAAAAAAAAAAAAAAAAAAAAAAAAAAAAAAAAAAAAAAAAAAAAAAAAAAAAAAAAAAAAAAAAAAAAAAAAAAAAAAAAAAAAAAAAAAAAAAAAAAAAAAAAAAAAAAAAAAAAAAAAAAAAAAAAAAAAAAAAAAAAAAAAAAAAAAAAAAAAAAAAAAAAAAAAAAAAAAAAAAAAAAAAAAAAAAAAAAAAAAAAAAAAAAAAAAAAAAAAAAAAAAAAAAAAAAAAAAAAAAAAAAAAAAAAAAAAAAAAAAAAAAAAAAAAAAAAAAAAAAAAAAAAAAAAAAAAAAAAAAAAAAAAAAAAAAAAAAAAAAAAAAAAAAAAAAAAAAAAAAAAAAAAAAAAAAAAAAAAAAAAAAAAAAAAAAAAAAAAAAAAAAAAAAAAAAAAAAAAAAAAAAAAAAAAAAAAAAAAAAAAAAAAAAAAAAAAAAAAAAAAAAAAAAAAAAAAAAAAAAAAAAAAAAAAAAAAAAAAAAAAAAAAAAAAAAAAAAAAAAAAAAAAAAAAAAAAAAAAAAAAAAAAAAAAAAAAAAAAAAAAAAAAAAAAAAAAAAAAAAAAAAAAAAAAAAAAAAAAAAAAAAAAAAAAAAAAAAAAAAAAAAAAAAAAAAAAAAAAAAAAAAAAAAAAAAAAAAAAAAAAAAAAAAAAAAAAAAAAAAAAAAAAAAAAAAAAAAAAAAAAAAAAAAAAAAAAAAAAAAAAAAAAAAAAAAAAAAAAAAAAAAAAAAAAAAAAAAAAAAAAAAAAAAAAAAAAAAAAAAAAAAAAAAAAAAAAAAAAAAAAAAAAAAAAAAAAAAAAAAAAAAAAAAAAAAAAAAAAAAAAAAAAAAAAAAAAAAAAAAAAAAAAAAAAAAAAAAAAAAAAAAAAAAAAAAAAAAAAAAAAAAAAAAAAAAAAAAAAAAAAAAAAAAAAAAAAAAAAAAAAAAAAAAAAAAAAAAAAAAAAAAAAAAAAAAAAAAAAAAAAAAAAAAAAAAAAAAAAAAAAAAAAAAAAAAAAAAAAAAAAAAAAAAAAAAAAAAAAAAAAAAAAAAAAAAAAAAAAAAAAAAAAAAAAAAAAAAAAAAAAAAAAAAAAAAAAAAAAAAAAAAAAAAAAAAAAAAAAAAAAAAAAAAAAAAAAAAAAAAAAAAAAAAAAAAAAAAAAAAAAAAAAAAAAAAAAAAAAAAAAAAAAAAAAAAAAAAAAAAAAAAAAAAAAAAAAAAAAAAAAAAAAAAAAAAAAAAAAAAAAAAAAAAAAAAAAAAAAAAAAAAAAAAAAAAAAAAAAAAAAAAAAAAAAAAAAAAAAAAAAAAAAAAAAAAAAAAAAAAAAAAAAAAAAAAAAAAAAAAAAAAAAAAAAAAAAAAAAAAAAAAAAAAAAAAAAAAAAAAAAAAAAAAAAAAAAAAAAAAAAAAAAAAAAAAAAAAAAAAAAAAAAAAAAAAAAAAAAAAAAAAAAAAAAAAAAAAAAAAAAAAAAAAAAAAAAAAAAAAAAAAAAAAAAAAAAAAAAAAAAAAAAAAAAAAAAAAAAAAAAAAAAAAAAAAAAAAAAAAAAAAAAAAAAAAAAAAAAAAAAAAAAAAAAAAAAAAAAAAAAAAAAAAAAAAAAAAAAAAAAAAAAAAAAAAAAAAAAAAAAAAAAAAAAAAAAAAAAAAAAAAAAAAAAAAAAAAAAAAAAAAAAAAAAAAAAAAAAAAAAAAAAAAAAAAAAAAAAAAAAAAAAAAAAAAAAAAAAAAAAAAAAAAAAAAAAAAAAAAAAAAAAAAAAAAAAAAAAAAAAAAAAAAAAAAAAAAAAAAAAAAAAAAAAAAAAAAAAAAAAAAAAAAAAAAAAAAAAAAAAAAAAAAAAAAAAAAAAAAAAAAAAAAAAAAAAAAAAAAAAAAAAAAAAAAAAAAAAAAAAAAAAAAAAAAAAAAAAAAAAAAAAAAAAAAAAAAAAAAAAAAAAAAAAAAAAAAAAAAAAAAAAAAAAAAAAAAAAAAAAAAAAAAAAAAAAAAAAAAAAAAAAAAAAAAAAAAAAAAAAAAAAAAAAAAAAAAAAAAAAAAAAAAAAAAAAAAAAAAAAAAAAAAAAAAAAAAAAAAAAAAAAAAAAAAAAAAAAAAAAAAAAAAAAAAAAAAAAAAAAAAAAAAAAAAAAAAAAAAAAAAAAAAAAAAAAAAAAAAAAAAAAAAAAAAAAAAAAAAAAAAAAAAAAAAAAAAAAAAAAAAAAAAAAAAAAAAAAAAAAAAAAAAAAAAAAAAAAAAAAAAAAAAAAAAAAAAAAAAAAAAAAAAAAAAAAAAAAAAAAAAAAAAAAAAAAAAAAAAAAAAAAAAAAAAAAAAAAAAAAAAAAAAAAAAAAAAAAAAAAAAAAAAAAAAAAAAAAAAAAAAAAAAAAAAAAAAAAAAAAAAAAAAAAAAAAAAAAAAAAAAAAAAAAAAAAAAAAAAAAAAAAAAAAAAAAAAAAAAAAAAAAAAAAAAAAAAAAAAAAAAAAAAAAAAAAAAAAAAAAAAAAAAAAAAAAAAAAAAAAAAAAAAAAAAAAAAAAAAAAAAAAAAAAAAAAAAAAAAAAAAAAAAAAAAAAAAAAAAAAAAAAAAAAAAAAAAAAAAAAAAAAAAAAAAAAAAAAAAAAAAAAAAAAAAAAAAAAAAAAAAAAAAAAAAAAAAAAAAAAAAAAAAAAAAAAAAAAAAAAAAAAAAAAAAAAAAAAAAAAAAAAAAAAAAAAAAAAAAAAAAAAAAAAAAAAAAAAAAAAAAAAAAAAAAAAAAAAAAAAAAAAAAAAAAAAAAAAAAAAAAAAAAAAAAAAAAAAAAAAAAAAAAAAAAAAAAAAAAAAAAAAAAAAAAAAAAAAAAAAAAAAAAAAAAAAAAAAAAAAAAAAAAAAAAAAAAAAAAAAAAAAAAAAAAAAAAAAAAAAAAAAAAAAAAAAAAAAAAAAAAAAAAAAAAAAAAAAAAAAAAAAAAAAAAAAAAAAAAAAAAAAAAAAAAAAAAAAAAAAAAAAAAAAAAAAAAAAAAAAAAAAAAAAAAAAAAPZYQO/XnTtgPGpx0wS+zLkqFhx1/HuMUfl72iqCaiuILTOIt/pTdBLpP4Ek6CWP2eexJLEoo+j8yn6x1+MbpwkTnfU=</c2pa:manifest></metadata><path d="M-57.5 -30.1L-57.5 601C-57.5 610.4 -49.9 618.1 -40.5 618.1L451.9 618.1L451.9 -30.1L-57.5 -30.1" fill="#eaf6fa"/><path d="M-6.2 -19.1C-14 -19.1 -20.4 -12.7 -20.4 -4.9L-20.4 514.1C-20.4 521.9 -14 528.3 -6.2 528.3L462.1 528.3L462.1 -19.1L-6.2 -19.1" fill="#ffffff"/><path d="M5.3 4.1C8.8 4.1 11.6 1.3 11.6 -2.2C11.6 -5.7 8.8 -8.5 5.3 -8.5C1.9 -8.5 -1 -5.7 -1 -2.2C-1 1.3 1.9 4.1 5.3 4.1" fill="#000000"/><path d="M48 469.5C47.4 465.4 44 462 38.8 462C28.3 462 23.6 471.3 22.6 474.1" fill="none" stroke="#e94e1b" stroke-width="0.8"/><path d="M203.5 9.5C201.9 9.5 200.7 10.8 200.7 12.3L200.7 52C200.7 53.6 201.9 54.9 203.5 54.9L220.5 54.9C222.1 54.9 223.3 53.6 223.3 52L223.3 12.3C223.3 10.8 222.1 9.5 220.5 9.5L203.5 9.5" fill="#e94e1b"/><path d="M203.5 57.7C201.9 57.7 200.7 59 200.7 60.5L200.7 100.2C200.7 101.8 201.9 103 203.5 103L220.5 103C222.1 103 223.3 101.8 223.3 100.2L223.3 60.5C223.3 59 222.1 57.7 220.5 57.7L203.5 57.7" fill="#e94e1b"/><path d="M203.5 105.9C201.9 105.9 200.7 107.1 200.7 108.7L200.7 148.4C200.7 150 201.9 151.2 203.5 151.2L220.5 151.2C222.1 151.2 223.3 150 223.3 148.4L223.3 108.7C223.3 107.1 222.1 105.9 220.5 105.9L203.5 105.9" fill="#e94e1b"/><path d="M228.4 9.7C226.9 9.7 225.6 10.9 225.6 12.5L225.6 46.5C225.6 48.1 226.9 49.3 228.4 49.3L245.4 49.3C247 49.3 248.3 48.1 248.3 46.5L248.3 12.5C248.3 10.9 247 9.7 245.4 9.7L228.4 9.7" fill="#f39200"/><path d="M286.8 9.7C285.3 9.7 284 10.9 284 12.5L284 52.2C284 53.7 285.3 55 286.8 55L303.8 55C305.4 55 306.7 53.7 306.7 52.2L306.7 12.5C306.7 10.9 305.4 9.7 303.8 9.7L286.8 9.7" fill="#f49c70"/><path d="M286.8 58.3C285.3 58.3 284 59.5 284 61.1L284 100.8C284 102.3 285.3 103.6 286.8 103.6L303.8 103.6C305.4 103.6 306.7 102.3 306.7 100.8L306.7 61.1C306.7 59.5 305.4 58.3 303.8 58.3L286.8 58.3" fill="#f49c70"/><path d="M228.4 57.7C226.9 57.7 225.6 59 225.6 60.5L225.6 94.5C225.6 96.1 226.9 97.4 228.4 97.4L245.4 97.4C247 97.4 248.3 96.1 248.3 94.5L248.3 60.5C248.3 59 247 57.7 245.4 57.7L228.4 57.7" fill="#f39200"/><path d="M228.4 105.9C226.9 105.9 225.6 107.1 225.6 108.7L225.6 142.7C225.6 144.3 226.9 145.6 228.4 145.6L245.4 145.6C247 145.6 248.3 144.3 248.3 142.7L248.3 108.7C248.3 107.1 247 105.9 245.4 105.9L228.4 105.9" fill="#f39200"/><path d="M253.4 9.7C251.8 9.7 250.5 10.9 250.5 12.5L250.5 46.5C250.5 48.1 251.8 49.3 253.4 49.3L270.4 49.3C272 49.3 273.2 48.1 273.2 46.5L273.2 12.5C273.2 10.9 272 9.7 270.4 9.7L253.4 9.7" fill="#f39200"/><path d="M311.8 9.7C310.2 9.7 308.9 10.9 308.9 12.5L308.9 46.5C308.9 48.1 310.2 49.3 311.8 49.3L328.8 49.3C330.3 49.3 331.6 48.1 331.6 46.5L331.6 12.5C331.6 10.9 330.3 9.7 328.8 9.7L311.8 9.7" fill="#fac075"/><path d="M311.8 58.3C310.2 58.3 308.9 59.5 308.9 61.1L308.9 95.1C308.9 96.7 310.2 97.9 311.8 97.9L328.8 97.9C330.3 97.9 331.6 96.7 331.6 95.1L331.6 61.1C331.6 59.5 330.3 58.3 328.8 58.3L311.8 58.3" fill="#fac075"/><path d="M253.4 57.7C251.8 57.7 250.5 59 250.5 60.5L250.5 94.5C250.5 96.1 251.8 97.4 253.4 97.4L270.4 97.4C272 97.4 273.2 96.1 273.2 94.5L273.2 60.5C273.2 59 272 57.7 270.4 57.7L253.4 57.7" fill="#f39200"/><path d="M253.4 105.9C251.8 105.9 250.5 107.1 250.5 108.7L250.5 142.7C250.5 144.3 251.8 145.6 253.4 145.6L270.4 145.6C272 145.6 273.2 144.3 273.2 142.7L273.2 108.7C273.2 107.1 272 105.9 270.4 105.9L253.4 105.9" fill="#f39200"/><path d="M27.2 111.6C25.6 111.6 24.3 112.9 24.3 114.4L24.3 154.1C24.3 155.7 25.6 157 27.2 157L44.2 157C45.7 157 47 155.7 47 154.1L47 114.4C47 112.9 45.7 111.6 44.2 111.6L27.2 111.6" fill="#e94e1b"/><path d="M27.2 60.3C25.6 60.3 24.3 61.6 24.3 63.2L24.3 102.9C24.3 104.4 25.6 105.7 27.2 105.7L44.2 105.7C45.7 105.7 47 104.4 47 102.9L47 63.2C47 61.6 45.7 60.3 44.2 60.3L27.2 60.3" fill="#e94e1b"/><path d="M52.1 60.3C50.6 60.3 49.3 61.6 49.3 63.2L49.3 97.2C49.3 98.8 50.6 100 52.1 100L69.1 100C70.7 100 72 98.8 72 97.2L72 63.2C72 61.6 70.7 60.3 69.1 60.3L52.1 60.3" fill="#f39200"/><path d="M52.1 111.6C50.6 111.6 49.3 112.9 49.3 114.4L49.3 148.5C49.3 150 50.6 151.3 52.1 151.3L69.1 151.3C70.7 151.3 72 150 72 148.5L72 114.4C72 112.9 70.7 111.6 69.1 111.6L52.1 111.6" fill="#f39200"/><path d="M27.2 9.1C25.6 9.1 24.3 10.3 24.3 11.9L24.3 51.6C24.3 53.2 25.6 54.4 27.2 54.4L44.2 54.4C45.7 54.4 47 53.2 47 51.6L47 11.9C47 10.3 45.7 9.1 44.2 9.1L27.2 9.1" fill="#e94e1b"/><path d="M52.1 9.1C50.6 9.1 49.3 10.3 49.3 11.9L49.3 45.9C49.3 47.5 50.6 48.8 52.1 48.8L69.1 48.8C70.7 48.8 72 47.5 72 45.9L72 11.9C72 10.3 70.7 9.1 69.1 9.1L52.1 9.1" fill="#f39200"/><path d="M77.1 9.1C75.5 9.1 74.2 10.3 74.2 11.9L74.2 45.9C74.2 47.5 75.5 48.8 77.1 48.8L94.1 48.8C95.6 48.8 96.9 47.5 96.9 45.9L96.9 11.9C96.9 10.3 95.6 9.1 94.1 9.1L77.1 9.1" fill="#f39200"/><path d="M77.1 60.3C75.5 60.3 74.2 61.6 74.2 63.2L74.2 97.2C74.2 98.8 75.5 100 77.1 100L94.1 100C95.6 100 96.9 98.8 96.9 97.2L96.9 63.2C96.9 61.6 95.6 60.3 94.1 60.3L77.1 60.3" fill="#f39200"/><path d="M77.1 111.6C75.5 111.6 74.2 112.9 74.2 114.4L74.2 148.5C74.2 150 75.5 151.3 77.1 151.3L94.1 151.3C95.6 151.3 96.9 150 96.9 148.5L96.9 114.4C96.9 112.9 95.6 111.6 94.1 111.6L77.1 111.6" fill="#f39200"/><path d="M23.1 111.4C22.9 111.8 22.8 112.2 22.8 112.6L22.8 113.7M22.8 154.9L22.8 156C22.8 156.5 22.9 156.9 23.1 157.3M24.4 158.6C24.7 158.7 25.2 158.9 25.6 158.9L26.7 158.9M94.6 158.9L95.7 158.9C96.2 158.9 96.6 158.7 97 158.6M98.3 157.3C98.5 156.9 98.6 156.5 98.6 156L98.6 154.9M98.6 113.7L98.6 112.6C98.6 112.2 98.5 111.8 98.3 111.4M97 110.1C96.6 109.9 96.2 109.8 95.7 109.8L94.6 109.8M26.7 109.8L25.6 109.8C25.2 109.8 24.7 109.9 24.4 110.1" fill="none" stroke="#000000" stroke-width="0.8"/><path d="M23.1 60.1C22.9 60.4 22.8 60.9 22.8 61.3L22.8 62.4M22.8 103.6L22.8 104.7C22.8 105.1 22.9 105.6 23.1 106M24.4 107.2C24.7 107.4 25.2 107.5 25.6 107.5L26.7 107.5M94.6 107.5L95.7 107.5C96.2 107.5 96.6 107.4 97 107.2M98.3 106C98.5 105.6 98.6 105.1 98.6 104.7L98.6 103.6M98.6 62.4L98.6 61.3C98.6 60.9 98.5 60.4 98.3 60.1M97 58.8C96.6 58.6 96.2 58.5 95.7 58.5L94.6 58.5M26.7 58.5L25.6 58.5C25.2 58.5 24.7 58.6 24.4 58.8" fill="none" stroke="#000000" stroke-width="0.8"/><path d="M23.1 8.7C22.9 9.1 22.8 9.5 22.8 10L22.8 11.1M22.8 52.3L22.8 53.4C22.8 53.8 22.9 54.3 23.1 54.6M24.4 55.9C24.7 56.1 25.2 56.2 25.6 56.2L26.7 56.2M94.6 56.2L95.7 56.2C96.2 56.2 96.6 56.1 97 55.9M98.3 54.6C98.5 54.3 98.6 53.8 98.6 53.4L98.6 52.3M98.6 11.1L98.6 10C98.6 9.5 98.5 9.1 98.3 8.7M97 7.4C96.6 7.3 96.2 7.2 95.7 7.2L94.6 7.2M26.7 7.2L25.6 7.2C25.2 7.2 24.7 7.3 24.4 7.4" fill="none" stroke="#000000" stroke-width="0.8"/><path d="M106.4 109L126.5 132.4L126.5 85.6L106.4 109" fill="#dedc00" stroke="#76b82a" stroke-width="0.8"/><path d="M106.4 57.7L126.5 81.1L126.5 34.3L106.4 57.7" fill="#dedc00" stroke="#76b82a" stroke-width="0.8"/><path d="M133.8 86.7C132.2 86.7 130.9 88 130.9 89.5L130.9 129.2C130.9 130.8 132.2 132 133.8 132L150.8 132C152.3 132 153.6 130.8 153.6 129.2L153.6 89.5C153.6 88 152.3 86.7 150.8 86.7L133.8 86.7" fill="#e94e1b"/><path d="M158.7 87.2C157.1 87.2 155.9 88.5 155.9 90.1L155.9 124.1C155.9 125.6 157.1 126.9 158.7 126.9L175.7 126.9C177.3 126.9 178.5 125.6 178.5 124.1L178.5 90.1C178.5 88.5 177.3 87.2 175.7 87.2L158.7 87.2" fill="#f39200"/><path d="M133.8 33.4C132.2 33.4 130.9 34.7 130.9 36.3L130.9 76C130.9 77.5 132.2 78.8 133.8 78.8L150.8 78.8C152.3 78.8 153.6 77.5 153.6 76L153.6 36.3C153.6 34.7 152.3 33.4 150.8 33.4L133.8 33.4" fill="#e94e1b"/><path d="M158.7 33.4C157.1 33.4 155.9 34.7 155.9 36.3L155.9 70.3C155.9 71.9 157.1 73.1 158.7 73.1L175.7 73.1C177.3 73.1 178.5 71.9 178.5 70.3L178.5 36.3C178.5 34.7 177.3 33.4 175.7 33.4L158.7 33.4" fill="#f39200"/><path d="M129.7 86.4C129.5 86.8 129.4 87.2 129.4 87.7L129.4 88.8M129.4 130.4L129.4 131.5C129.4 131.9 129.5 132.3 129.7 132.7M131 134C131.3 134.2 131.8 134.3 132.2 134.3L133.3 134.3M176.3 134.3L177.4 134.3C177.9 134.3 178.3 134.2 178.7 134M180 132.7C180.2 132.3 180.3 131.9 180.3 131.5L180.3 130.4M180.3 88.8L180.3 87.7C180.3 87.2 180.2 86.8 180 86.4M178.7 85.2C178.3 85 177.9 84.9 177.4 84.9L176.3 84.9M133.3 84.9L132.2 84.9C131.8 84.9 131.3 85 131 85.2" fill="none" stroke="#000000" stroke-width="0.8"/><path d="M129.7 33.4C129.5 33.8 129.4 34.2 129.4 34.6L129.4 35.7M129.4 77.3L129.4 78.4C129.4 78.9 129.5 79.3 129.7 79.7M131 81C131.3 81.1 131.8 81.2 132.2 81.2L133.3 81.2M176.3 81.2L177.4 81.2C177.9 81.2 178.3 81.1 178.7 81M180 79.7C180.2 79.3 180.3 78.9 180.3 78.4L180.3 77.3M180.3 35.7L180.3 34.6C180.3 34.2 180.2 33.8 180 33.4M178.7 32.1C178.3 31.9 177.9 31.8 177.4 31.8L176.3 31.8M133.3 31.8L132.2 31.8C131.8 31.8 131.3 31.9 131 32.1" fill="none" stroke="#000000" stroke-width="0.8"/><path d="M196.1 191.1C194.6 191.1 193.3 192.3 193.3 193.9L193.3 233.6C193.3 235.1 194.6 236.4 196.1 236.4L213.1 236.4C214.7 236.4 216 235.1 216 233.6L216 193.9C216 192.3 214.7 191.1 213.1 191.1L196.1 191.1" fill="#e94e1b"/><path d="M196.1 239.2C194.6 239.2 193.3 240.5 193.3 242.1L193.3 281.8C193.3 283.3 194.6 284.6 196.1 284.6L213.1 284.6C214.7 284.6 216 283.3 216 281.8L216 242.1C216 240.5 214.7 239.2 213.1 239.2L196.1 239.2" fill="#e94e1b"/><path d="M221.2 239.2C219.6 239.2 218.4 240.5 218.4 242.1L218.4 281.8C218.4 283.3 219.6 284.6 221.2 284.6L238.2 284.6C239.8 284.6 241 283.3 241 281.8L241 242.1C241 240.5 239.8 239.2 238.2 239.2L221.2 239.2" fill="#f49c70"/><path d="M221.2 191.1C219.6 191.1 218.4 192.3 218.4 193.9L218.4 233.6C218.4 235.1 219.6 236.4 221.2 236.4L238.2 236.4C239.8 236.4 241 235.1 241 233.6L241 193.9C241 192.3 239.8 191.1 238.2 191.1L221.2 191.1" fill="#f49c70"/><path d="M196.1 288.9C194.6 288.9 193.3 290.1 193.3 291.7L193.3 331.4C193.3 332.9 194.6 334.2 196.1 334.2L213.1 334.2C214.7 334.2 216 332.9 216 331.4L216 291.7C216 290.1 214.7 288.9 213.1 288.9L196.1 288.9" fill="#e94e1b"/><path d="M191.7 190.5C191.5 190.9 191.4 191.3 191.4 191.8L191.4 192.9M191.4 282.9L191.4 284C191.4 284.4 191.5 284.8 191.7 285.2M192.9 286.5C193.3 286.7 193.7 286.8 194.2 286.8L195.3 286.8M239.3 286.8L240.4 286.8C240.9 286.8 241.3 286.7 241.7 286.5M242.9 285.2C243.1 284.8 243.2 284.4 243.2 284L243.2 282.9M243.2 192.9L243.2 191.8C243.2 191.3 243.1 190.9 242.9 190.5M241.7 189.3C241.3 189.1 240.9 189 240.4 189L239.3 189M195.3 189L194.2 189C193.7 189 193.3 189.1 192.9 189.3" fill="none" stroke="#000000" stroke-width="0.7"/><path d="M268.7 190.3C267.1 190.3 265.9 191.5 265.9 193.1L265.9 227.1C265.9 228.7 267.1 230 268.7 230L285.7 230C287.3 230 288.5 228.7 288.5 227.1L288.5 193.1C288.5 191.5 287.3 190.3 285.7 190.3L268.7 190.3" fill="#f39200"/><path d="M293.6 190.3C292.1 190.3 290.8 191.5 290.8 193.1L290.8 227.1C290.8 228.7 292.1 230 293.6 230L310.7 230C312.2 230 313.5 228.7 313.5 227.1L313.5 193.1C313.5 191.5 312.2 190.3 310.7 190.3L293.6 190.3" fill="#f39200"/><path d="M268.7 232.8C267.1 232.8 265.9 234.1 265.9 235.6L265.9 269.6C265.9 271.2 267.1 272.5 268.7 272.5L285.7 272.5C287.3 272.5 288.5 271.2 288.5 269.6L288.5 235.6C288.5 234.1 287.3 232.8 285.7 232.8L268.7 232.8" fill="#f39200"/><path d="M318 232.8C316.5 232.8 315.2 234.1 315.2 235.6L315.2 269.6C315.2 271.2 316.5 272.5 318 272.5L335 272.5C336.6 272.5 337.9 271.2 337.9 269.6L337.9 235.6C337.9 234.1 336.6 232.8 335 232.8L318 232.8" fill="#f7a941"/><path d="M293.6 232.8C292.1 232.8 290.8 234.1 290.8 235.6L290.8 269.6C290.8 271.2 292.1 272.5 293.6 272.5L310.7 272.5C312.2 272.5 313.5 271.2 313.5 269.6L313.5 235.6C313.5 234.1 312.2 232.8 310.7 232.8L293.6 232.8" fill="#f39200"/><path d="M318 190.3C316.5 190.3 315.2 191.5 315.2 193.1L315.2 227.1C315.2 228.7 316.5 230 318 230L335 230C336.6 230 337.9 228.7 337.9 227.1L337.9 193.1C337.9 191.5 336.6 190.3 335 190.3L318 190.3" fill="#f7a941"/><path d="M293.6 275.3C292.1 275.3 290.8 276.5 290.8 278.1L290.8 312.1C290.8 313.7 292.1 314.9 293.6 314.9L310.7 314.9C312.2 314.9 313.5 313.7 313.5 312.1L313.5 278.1C313.5 276.5 312.2 275.3 310.7 275.3L293.6 275.3" fill="#f39200"/><path d="M268.7 275.3C267.1 275.3 265.9 276.5 265.9 278.1L265.9 312.1C265.9 313.7 267.1 314.9 268.7 314.9L285.7 314.9C287.3 314.9 288.5 313.7 288.5 312.1L288.5 278.1C288.5 276.5 287.3 275.3 285.7 275.3L268.7 275.3" fill="#f39200"/><path d="M289.9 190.5C289.7 190.9 289.6 191.3 289.6 191.8L289.6 192.9M289.6 269.9L289.6 271C289.6 271.4 289.7 271.8 289.9 272.2M291.2 273.5C291.6 273.7 292 273.8 292.5 273.8L293.5 273.8M335 273.8L336.1 273.8C336.6 273.8 337 273.7 337.4 273.5M338.6 272.2C338.8 271.8 338.9 271.4 338.9 271L338.9 269.9M338.9 192.9L338.9 191.8C338.9 191.3 338.8 190.9 338.6 190.5M337.4 189.3C337 189.1 336.6 189 336.1 189L335 189M293.5 189L292.5 189C292 189 291.6 189.1 291.2 189.3" fill="none" stroke="#000000" stroke-width="0.7"/><path d="M191.5 77.2L197.2 82.5L191.5 87.7" fill="none" stroke="#000000" stroke-width="2.5" stroke-linecap="round"/><path d="M250.8 344.4L256.1 350L261.3 344.4" fill="none" stroke="#000000" stroke-width="2.5" stroke-linecap="round"/><path d="M210.4 397.6C208.9 397.6 207.6 398.9 207.6 400.4L207.6 434.5C207.6 436 208.9 437.3 210.4 437.3L227.4 437.3C229 437.3 230.3 436 230.3 434.5L230.3 400.4C230.3 398.9 229 397.6 227.4 397.6L210.4 397.6" fill="#f39200"/><path d="M210.4 350C208.9 350 207.6 351.3 207.6 352.8L207.6 392.5C207.6 394.1 208.9 395.3 210.4 395.3L227.4 395.3C229 395.3 230.3 394.1 230.3 392.5L230.3 352.8C230.3 351.3 229 350 227.4 350L210.4 350" fill="#e94e1b"/><path d="M235.4 397.6C233.8 397.6 232.5 398.9 232.5 400.4L232.5 434.5C232.5 436 233.8 437.3 235.4 437.3L252.4 437.3C254 437.3 255.2 436 255.2 434.5L255.2 400.4C255.2 398.9 254 397.6 252.4 397.6L235.4 397.6" fill="#f39200"/><path d="M260.3 397.6C258.8 397.6 257.5 398.9 257.5 400.4L257.5 434.5C257.5 436 258.8 437.3 260.3 437.3L277.3 437.3C278.9 437.3 280.2 436 280.2 434.5L280.2 400.4C280.2 398.9 278.9 397.6 277.3 397.6L260.3 397.6" fill="#f39200"/><path d="M285.3 397.6C283.7 397.6 282.4 398.9 282.4 400.4L282.4 434.5C282.4 436 283.7 437.3 285.3 437.3L302.3 437.3C303.8 437.3 305.1 436 305.1 434.5L305.1 400.4C305.1 398.9 303.8 397.6 302.3 397.6L285.3 397.6" fill="#f39200"/><path d="M261.3 177.1L256.1 182.7L250.8 177.1" fill="none" stroke="#000000" stroke-width="2.5" stroke-linecap="round"/><text x="209.3" y="37.1" font-size="10" fill="#ffffff" font-family="Lato, Roboto, Arial, sans-serif" font-style="italic" font-weight="bold">x</text><text x="209.3" y="85.3" font-size="10" fill="#ffffff" font-family="Lato, Roboto, Arial, sans-serif" font-style="italic" font-weight="bold">x</text><text x="209.3" y="133.5" font-size="10" fill="#ffffff" font-family="Lato, Roboto, Arial, sans-serif" font-style="italic" font-weight="bold">x</text><text x="234.3" y="34.4" font-size="10" fill="#ffffff" font-family="Lato, Roboto, Arial, sans-serif" font-style="italic" font-weight="bold">y</text><text x="289.7" y="37.3" font-size="10" fill="#ffffff" font-family="Lato, Roboto, Arial, sans-serif" font-style="italic" font-weight="bold" textLength="10.6" lengthAdjust="spacingAndGlyphs">–x</text><text x="289.7" y="85.9" font-size="10" fill="#ffffff" font-family="Lato, Roboto, Arial, sans-serif" font-style="italic" font-weight="bold" textLength="10.6" lengthAdjust="spacingAndGlyphs">–x</text><text x="234.3" y="82.5" font-size="10" fill="#ffffff" font-family="Lato, Roboto, Arial, sans-serif" font-style="italic" font-weight="bold">y</text><text x="234.3" y="130.7" font-size="10" fill="#ffffff" font-family="Lato, Roboto, Arial, sans-serif" font-style="italic" font-weight="bold">y</text><text x="259.2" y="34.4" font-size="10" fill="#ffffff" font-family="Lato, Roboto, Arial, sans-serif" font-style="italic" font-weight="bold">y</text><text x="314.7" y="34.4" font-size="10" fill="#ffffff" font-family="Lato, Roboto, Arial, sans-serif" font-style="italic" font-weight="bold" textLength="10.7" lengthAdjust="spacingAndGlyphs">–y</text><text x="314.7" y="83" font-size="10" fill="#ffffff" font-family="Lato, Roboto, Arial, sans-serif" font-style="italic" font-weight="bold" textLength="10.7" lengthAdjust="spacingAndGlyphs">–y</text><text x="259.2" y="82.5" font-size="10" fill="#ffffff" font-family="Lato, Roboto, Arial, sans-serif" font-style="italic" font-weight="bold">y</text><text x="259.2" y="130.7" font-size="10" fill="#ffffff" font-family="Lato, Roboto, Arial, sans-serif" font-style="italic" font-weight="bold">y</text><text x="33" y="139.2" font-size="10" fill="#ffffff" font-family="Lato, Roboto, Arial, sans-serif" font-style="italic" font-weight="bold">x</text><text x="33" y="88" font-size="10" fill="#ffffff" font-family="Lato, Roboto, Arial, sans-serif" font-style="italic" font-weight="bold">x</text><text x="58" y="85.1" font-size="10" fill="#ffffff" font-family="Lato, Roboto, Arial, sans-serif" font-style="italic" font-weight="bold">y</text><text x="58" y="136.4" font-size="10" fill="#ffffff" font-family="Lato, Roboto, Arial, sans-serif" font-style="italic" font-weight="bold">y</text><text x="33" y="36.7" font-size="10" fill="#ffffff" font-family="Lato, Roboto, Arial, sans-serif" font-style="italic" font-weight="bold">x</text><text x="58" y="33.8" font-size="10" fill="#ffffff" font-family="Lato, Roboto, Arial, sans-serif" font-style="italic" font-weight="bold">y</text><text x="82.9" y="33.8" font-size="10" fill="#ffffff" font-family="Lato, Roboto, Arial, sans-serif" font-style="italic" font-weight="bold">y</text><text x="82.9" y="85.1" font-size="10" fill="#ffffff" font-family="Lato, Roboto, Arial, sans-serif" font-style="italic" font-weight="bold">y</text><text x="82.9" y="136.4" font-size="10" fill="#ffffff" font-family="Lato, Roboto, Arial, sans-serif" font-style="italic" font-weight="bold">y</text><text x="139.5" y="114.3" font-size="10" fill="#ffffff" font-family="Lato, Roboto, Arial, sans-serif" font-style="italic" font-weight="bold">x</text><text x="164.5" y="112" font-size="10" fill="#ffffff" font-family="Lato, Roboto, Arial, sans-serif" font-style="italic" font-weight="bold">y</text><text x="139.5" y="61.1" font-size="10" fill="#ffffff" font-family="Lato, Roboto, Arial, sans-serif" font-style="italic" font-weight="bold">x</text><text x="164.5" y="58.2" font-size="10" fill="#ffffff" font-family="Lato, Roboto, Arial, sans-serif" font-style="italic" font-weight="bold">y</text><text x="116.5" y="59.4" font-size="10" fill="#000000" font-family="Lato, Roboto, Arial, sans-serif" >–</text><text x="116.5" y="110.8" font-size="10" fill="#000000" font-family="Lato, Roboto, Arial, sans-serif" >–</text><text x="202.5" y="162.7" font-size="8" fill="#ce4716" font-family="Lato, Roboto, Arial, sans-serif" font-weight="bold" textLength="79.8" lengthAdjust="spacingAndGlyphs">Раскрываем скобки.</text><text x="225.3" y="329" font-size="8" fill="#ce4716" font-family="Lato, Roboto, Arial, sans-serif" font-weight="bold" textLength="118.9" lengthAdjust="spacingAndGlyphs">Группируем подобные члены.</text><text x="201.9" y="218.7" font-size="10" fill="#ffffff" font-family="Lato, Roboto, Arial, sans-serif" font-style="italic" font-weight="bold">x</text><text x="201.9" y="266.9" font-size="10" fill="#ffffff" font-family="Lato, Roboto, Arial, sans-serif" font-style="italic" font-weight="bold">x</text><text x="224.1" y="266.9" font-size="10" fill="#ffffff" font-family="Lato, Roboto, Arial, sans-serif" font-style="italic" font-weight="bold" textLength="10.6" lengthAdjust="spacingAndGlyphs">–x</text><text x="224.1" y="218.7" font-size="10" fill="#ffffff" font-family="Lato, Roboto, Arial, sans-serif" font-style="italic" font-weight="bold" textLength="10.6" lengthAdjust="spacingAndGlyphs">–x</text><text x="201.9" y="316.5" font-size="10" fill="#ffffff" font-family="Lato, Roboto, Arial, sans-serif" font-style="italic" font-weight="bold">x</text><text x="144.5" y="231.6" font-size="8" fill="#000000" font-family="Lato, Roboto, Arial, sans-serif" font-weight="bold" textLength="34" lengthAdjust="spacingAndGlyphs">Нулевые</text><text x="151.8" y="241.6" font-size="8" fill="#000000" font-family="Lato, Roboto, Arial, sans-serif" font-weight="bold" textLength="19.5" lengthAdjust="spacingAndGlyphs">пары</text><text x="274.5" y="215" font-size="10" fill="#ffffff" font-family="Lato, Roboto, Arial, sans-serif" font-style="italic" font-weight="bold">y</text><text x="299.5" y="215" font-size="10" fill="#ffffff" font-family="Lato, Roboto, Arial, sans-serif" font-style="italic" font-weight="bold">y</text><text x="274.5" y="257.6" font-size="10" fill="#ffffff" font-family="Lato, Roboto, Arial, sans-serif" font-style="italic" font-weight="bold">y</text><text x="321" y="257.6" font-size="10" fill="#ffffff" font-family="Lato, Roboto, Arial, sans-serif" font-style="italic" font-weight="bold" textLength="10.7" lengthAdjust="spacingAndGlyphs">–y</text><text x="299.5" y="257.6" font-size="10" fill="#ffffff" font-family="Lato, Roboto, Arial, sans-serif" font-style="italic" font-weight="bold">y</text><text x="321" y="215" font-size="10" fill="#ffffff" font-family="Lato, Roboto, Arial, sans-serif" font-style="italic" font-weight="bold" textLength="10.7" lengthAdjust="spacingAndGlyphs">–y</text><text x="299.5" y="300" font-size="10" fill="#ffffff" font-family="Lato, Roboto, Arial, sans-serif" font-style="italic" font-weight="bold">y</text><text x="274.5" y="300" font-size="10" fill="#ffffff" font-family="Lato, Roboto, Arial, sans-serif" font-style="italic" font-weight="bold">y</text><text x="216.3" y="422.4" font-size="10" fill="#ffffff" font-family="Lato, Roboto, Arial, sans-serif" font-style="italic" font-weight="bold">y</text><text x="216.2" y="377.6" font-size="10" fill="#ffffff" font-family="Lato, Roboto, Arial, sans-serif" font-style="italic" font-weight="bold">x</text><text x="241.2" y="422.4" font-size="10" fill="#ffffff" font-family="Lato, Roboto, Arial, sans-serif" font-style="italic" font-weight="bold">y</text><text x="266.2" y="422.4" font-size="10" fill="#ffffff" font-family="Lato, Roboto, Arial, sans-serif" font-style="italic" font-weight="bold">y</text><text x="291.1" y="422.4" font-size="10" fill="#ffffff" font-family="Lato, Roboto, Arial, sans-serif" font-style="italic" font-weight="bold">y</text><text x="243.1" y="452.5" font-size="10" fill="#000000" font-family="Lato, Roboto, Arial, sans-serif" font-style="italic">x</text><text x="250.2" y="452.5" font-size="10" fill="#000000" font-family="Lato, Roboto, Arial, sans-serif"  textLength="14.1" lengthAdjust="spacingAndGlyphs">+  4</text><text x="264.2" y="452.5" font-size="10" fill="#000000" font-family="Lato, Roboto, Arial, sans-serif" font-style="italic">y</text><text x="40.4" y="179.4" font-size="10" fill="#000000" font-family="Lato, Roboto, Arial, sans-serif"  textLength="8.7" lengthAdjust="spacingAndGlyphs">3(</text><text x="49.4" y="179.4" font-size="10" fill="#000000" font-family="Lato, Roboto, Arial, sans-serif" font-style="italic">x</text><text x="56.6" y="179.4" font-size="10" fill="#000000" font-family="Lato, Roboto, Arial, sans-serif"  textLength="14.1" lengthAdjust="spacingAndGlyphs">+  2</text><text x="70.7" y="179.4" font-size="10" fill="#000000" font-family="Lato, Roboto, Arial, sans-serif" font-style="italic">y</text><text x="75.5" y="179.4" font-size="10" fill="#000000" font-family="Lato, Roboto, Arial, sans-serif" >)</text><text x="131.1" y="153.9" font-size="10" fill="#000000" font-family="Lato, Roboto, Arial, sans-serif"  textLength="13.5" lengthAdjust="spacingAndGlyphs">–2(</text><text x="145" y="153.9" font-size="10" fill="#000000" font-family="Lato, Roboto, Arial, sans-serif" font-style="italic">x</text><text x="152.1" y="153.9" font-size="10" fill="#000000" font-family="Lato, Roboto, Arial, sans-serif" >+</text><text x="160.4" y="153.9" font-size="10" fill="#000000" font-family="Lato, Roboto, Arial, sans-serif" font-style="italic">y</text><text x="165.2" y="153.9" font-size="10" fill="#000000" font-family="Lato, Roboto, Arial, sans-serif" >)</text></svg>